<?xml version="1.0" encoding="UTF-8"?>
<svg version="1.1" viewBox="0 0 1421 1122" width="1421" height="1122" xmlns="http://www.w3.org/2000/svg">
<path transform="translate(750)" d="m0 0h40l21 5 16 7 12 7 11 9 10 10 7 10v2l25-9 26-6 8-1h29l15 3 16 6 10 6 9 7 7 6 9 12 7 16 2 8v4h12l12 4 11 8 8 10 6 13 3 15v16l-1 8 75-3h30l30 2 27 4 19 5 16 6 16 8 21 14 15 14 8 9 10 15 8 16 6 16 5 21 2 17v24l-2 17-5 22-8 20-8 15-9 13-13 15-13 12-17 12-16 9-17 8-19 7-27 7-12 2 5-5 13-10 12-11 6-7h2l2-4 9-13 8-16 5-15 1-5v-18l-51 11-69 17-51 14-48 14-45 14-49 16-39 14-44 18-33 11-38 9-17 3 5 4 13 10 18 13 57 42 18 13 19 14 3 2v2l-18 2 4 1 23 1 2 2-2 25-2 23-2 3-31-2-5-1-1-4-5-1-17-12-17-13-9-6-14-10-5-4-5-3-10-8-10-7-8-6-3-1-4-4-15-10v-2l-4-2-10-6-10-8-5-3v-2l-4-2-9-6-5-2-13 12-9 9-11 15-8 16-6 15-5 18-2 10 12 1 122 18 74 11 5 1 1 23v31l-4 3-15 5-17 6h-9l-35-5-32-5-12-1-9-2-60-9-21-3-2 18-5 21-6 16-10 19-10 13-11 12-8 8-16 12-16 9-20 8-19 5-23 4-12 1h-36l-23-3-20-5-16-6-19-10-14-11-12-11-6-6v-2h-2l-7-9-7-10-10-17-6-15-4-13-3-19v-22l3-19 5-17 9-20 10-17 15-20-9-1-21-6-16-8-13-9-12-11-11-15-8-15-7-21-3-18v-33l4-22 5-16 8-18 8-12 11-13 12-9 12-6 11-3-8-7-8-12-6-16-3-16v-20l2-15 5-19 6-15 4-8 8-12 9-11 14-18 7-11 8-16 3-9 1-5v-10l-3-13-8-16-8-11-9-8-15-10-22-13-12-9-9-10-5-10-2-7v-22l2-2 7 7 2 1v2l4 2 12 9 18 10 18 6 16 3h20l16-2 23-6 28-11 34-16 29-13 26-10 24-7 22-4 13-1h10l18 2 17 5 17 9 5 4 5-2 13-8 27-14 19-8 20-5z" fill="#EFB80B"/>
<path transform="translate(750)" d="m0 0h40l21 5 16 7 12 7 11 9 10 10 7 10v2l25-9 26-6 8-1h29l15 3 16 6 10 6 9 7 7 6 9 12 7 16 2 8v4h12l12 4 11 8 8 10 6 13 3 15v16l-1 8 75-3h30l30 2 27 4 19 5 16 6 16 8 21 14 15 14 8 9 10 15 8 16 6 16 5 21 2 17v24l-2 17-5 22-8 20-8 15-9 13-13 15-13 12-17 12-16 9-17 8-19 7-27 7-12 2 5-5 13-10 12-11 6-7h2l2-4 9-13 8-16 5-15 1-5v-18l-51 11-69 17-51 14-48 14-45 14-49 16-39 14-44 18-33 11-38 9-11 2h-10l-6-4v-1l24-4 35-8 29-9 27-11 33-13 37-13 36-12 38-12 51-15 47-13 54-14 56-13 20-4 2-1v-10l-4-6-15 2-75 13-248 42-42 7h-5l-1-1v-5l87-15 88-15 85-15 84-14 37-6h8l8 9 5 14 1 6v14l-3 16-6 16-8 15-9 12-9 10-8 8 17-5 20-8 17-9 15-10 11-9 11-10 9-11 10-15 8-16 6-16 4-16 2-14 1-23-2-21-6-25-6-15-9-17-9-12-11-12-12-10-19-12-19-9-20-6-21-4-28-3h-59l-24 1h-44l1-9v-25l-5-16-7-11-9-7-9-4-12-1h-3l-1 9-4 14-9 17-11 14-16 16-16 12-15 9-16 8-17 7-20 6-22 4-10 1-2 1 7 11 7 14 5 17 1 7v25l-4 19-6 16-6 11-9 12-13 13-14 10-21 12-26 11-27 10-7 7-8 14-5 13-4 18-1 10v19l1 15-4-3-1-4v-33l3-18 5-15 6-12 10-13-42 11-35 7-24 3-14 1h-22l-20-2-17-4-16-6-15-9-13-12-7-8-10-16-8-17-10-28-3-16v-28l4-21 6-18 8-18 10-17 12-17 11-13 12-13 9-9 8-7 16-13 16-11 11-7h2l-7-11-2-6v-11l4-11 6-10 8-10 9-10 7-8 4-4-2-4-14-8-16-6-21-3h-10l-20 2-23 5-27 9-26 11-39 18-28 12-24 8-20 4-11 1h-18l-17-3-17-6-16-8-14-10-10-9v15l4 11 7 9 9 8 21 13 10 6h14l24 4h16l20-4 23-8 27-10 19-4 10-1h17l19 3 14 4 17 7 1 2-7-1-21-6-19-3h-28l-17 3-20 6-25 9-24 7-13 2h-8l-20-4-10-1 5 5 7 6 4 5h13l15 5h12l29-6 16-4h9l10 4 12 5 17 2v1l-12 1-11-2-10-5-12-2-21 5-22 5-7 1h-12l-11-4h-11l9 17 2 9 14-3 8-1h15l14 3 24 8 28 5v1l-18-1-15-3-20-7-11-2h-16l-12 3-8 3-2 17-1 3 10-2h18l16 2 15 5 11 6 8 2v1h-8l-20-8-19-3h-16l-15 2-2 1-8 16-10 15-11 14 18-9 14-4 8-1h10l16 3 16 7 11 8 7 6 10 13 8 16 4 16v17l-3 13-6 12-7 9-9 9-11 7-13 4h-18l-13-4-10-6-10-10-6-12 1-2 3 1 6 11 9 9 14 7 10 2h10l12-3 10-5 12-11 6-8 5-10 3-10 1-15-3-16-5-12-6-10-8-10-14-11-15-7-13-3h-19l-15 4-14 7-12 9-7 6-9 16-6 15-5 22-1 8v21l3 15 4 11 6 11 8 9 12 5 12 3v1l-24 1-14 4-12 7-12 11-8 11-8 14-7 18-5 22-1 8v31l3 18 7 21 8 15 10 13 9 9 13 9 16 8 20 6 17 3-6 8-11 15-8 13-8 15-7 19-4 18-1 7v23l3 18 5 16 7 16 10 16 13 16 15 15 13 10 14 8 16 7 16 5 22 4 11 1h35l24-3 23-5 22-8 18-10 12-9 10-9 10-10 10-13 9-16 6-14 6-21 4-25h3v14l-5 24-7 19-10 19-10 13-11 12-8 8-16 12-16 9-20 8-19 5-23 4-12 1h-36l-23-3-20-5-16-6-19-10-14-11-12-11-6-6v-2h-2l-7-9-7-10-10-17-6-15-4-13-3-19v-22l3-19 5-17 9-20 10-17 15-20-9-1-21-6-16-8-13-9-12-11-11-15-8-15-7-21-3-18v-33l4-22 5-16 8-18 8-12 11-13 12-9 12-6 11-3-8-7-8-12-6-16-3-16v-20l2-15 5-19 6-15 4-8 8-12 9-11 14-18 7-11 8-16 3-9 1-5v-10l-3-13-8-16-8-11-9-8-15-10-22-13-12-9-9-10-5-10-2-7v-22l2-2 7 7 2 1v2l4 2 12 9 18 10 18 6 16 3h20l16-2 23-6 28-11 34-16 29-13 26-10 24-7 22-4 13-1h10l18 2 17 5 17 9 5 4 5-2 13-8 27-14 19-8 20-5z" fill="#27AA13"/>
<path transform="translate(1032,108)" d="m0 0 12 1 12 6 7 6 7 11 5 16v25l-2 9 44-1 24-1h59l28 3 25 5 18 6 19 9 18 12 13 11 7 7 10 13 8 14 6 13 5 15 4 18 2 21-1 23-3 19-6 20-8 18-10 16-9 11-11 12-11 9-14 10-18 10-16 7-24 8-2-1 15-15 11-15 10-19 6-20 1-8v-14l-3-13-5-10-5-5h-8l-85 14-174 30-117 20h-5l1 5 11-1 171-29 160-27 40-7 4 1 4 6v10l-3 2-42 9-58 14-56 15-55 16-49 15-36 12-38 13-38 15-27 11-29 9-35 8-22 4 4 3 4 2 5 4 13 10 18 13 57 42 18 13 19 14 3 2v2l-18 2 4 1 23 1 2 2-2 25-2 23-2 3-31-2-5-1-1-4-5-1-17-12-17-13-9-6-14-10-5-4-5-3-10-8-10-7-8-6-3-1-4-4-15-10v-2l-4-2-10-6-10-8-5-3v-2l-4-2-9-6-5-2-13 12-9 9-11 15-8 16-6 15-5 18-2 10 12 1 122 18 74 11 3 3-35 15h-9l-117-17-61-9-36-5-12-2 3-3 19-8 11-5 3-1h9l10 2 1-10 5-19 6-15 10-19 9-12 11-12 13-12-5-5-17-12-19-14-1-1 1-13 5-32 1-3h-2v-2h5l1 1 31 3 14 10 9 7 5 3-1-14v-19l3-21 5-16 8-15 9-10 9-4 29-11 22-10 18-11 13-10 12-12 10-15 7-16 5-19 1-6v-25l-3-15-6-16-8-14-3-5 13-2 22-4 26-8 22-10 17-10 16-12 10-9 10-10 11-15 8-17 5-20z" fill="#CF9305"/>
<path transform="translate(750)" d="m0 0h40l21 5 16 7 12 7 11 9 10 10 7 10v2l25-9 26-6 8-1h29l15 3 16 6 10 6 9 7 7 6 9 12 7 16 2 8v4h12l12 4 11 8 8 10 6 13 3 15v16l-1 8 75-3h30l30 2 27 4 19 5 16 6 16 8 21 14 15 14 8 9 10 15 8 16 6 16 5 21 2 17v24l-2 17-5 22-8 20-8 15-9 13-13 15-13 12-17 12-16 9-17 8-19 7-27 7-12 2 5-5 13-10 12-11 6-7h2l2-4 9-13 8-16 5-15 1-5v-18l-51 11-69 17-51 14-48 14-45 14-49 16-39 14-44 18-33 11-38 9-11 2h-10l-6-4v-1l24-4 35-8 29-9 27-11 33-13 37-13 36-12 38-12 51-15 47-13 54-14 56-13 20-4 2-1v-10l-4-6-15 2-75 13-248 42-42 7h-5l-1-1v-5l87-15 88-15 85-15 84-14 37-6h8l8 9 5 14 1 6v14l-3 16-6 16-8 15-9 12-9 10-8 8 17-5 20-8 17-9 15-10 11-9 11-10 9-11 10-15 8-16 6-16 4-16 2-14 1-23-2-21-6-25-6-15-9-17-9-12-11-12-12-10-19-12-19-9-20-6-21-4-28-3h-59l-24 1h-44l1-9v-25l-5-16-7-11-9-7-9-4-12-1h-3l-1 9-4 14-9 17-11 14-16 16-16 12-15 9-16 8-17 7-20 6-22 4-10 1-2 1 7 11 7 14 5 17 1 7v25l-4 19-6 16-6 11-9 12-13 13-14 10-21 12-26 11-27 10-7 7-8 14-5 13-4 18-1 10v19l1 15-4-3-1-4v-33l3-18 5-15 6-12 10-13-42 11-35 7-24 3-14 1h-22l-20-2-17-4-16-6-15-9-13-12-7-8-10-16-8-17-10-28-3-16v-28l4-21 6-18 8-18 10-17 12-17 11-13 12-13 9-9 8-7 16-13 16-11 11-7h2l-7-11-2-6v-11l4-11 6-10 8-10 9-10 7-8 4-4-2-4-14-8-16-6-21-3h-10l-20 2-23 5-27 9-26 11-39 18-28 12-24 8-20 4-11 1h-18l-17-3-17-6-16-8-14-10-10-9v15l4 11 7 9 9 8 21 13 10 6h14l24 4h16l20-4 23-8 27-10 19-4 10-1h17l19 3 14 4 17 7 1 2-7-1-21-6-19-3h-28l-17 3-20 6-25 9-24 7-13 2h-8l-20-4-10-1 5 5 7 6 4 5h13l15 5h12l29-6 16-4h9l10 4 12 5 17 2v1l-12 1-11-2-10-5-12-2-21 5-22 5-7 1h-12l-11-4h-11l9 17 2 9 14-3 8-1h15l14 3 24 8 28 5v1l-18-1-15-3-20-7-11-2h-16l-12 3-8 3-2 17-1 3 10-2h18l16 2 15 5 11 6 8 2v1h-8l-20-8-19-3h-16l-15 2-2 1-8 16-10 15-11 14 18-9 14-4 8-1h10l16 3 16 7 11 8 7 6 10 13 8 16 4 16v17l-3 13-6 12-7 9-9 9-11 7-13 4h-18l-13-4-10-6-10-10-6-12 1-2 3 1 6 11 9 9 14 7 10 2h10l12-3 10-5 12-11 6-8 5-10 3-10 1-15-3-16-5-12-6-10-8-10-14-11-15-7-13-3h-19l-15 4-14 7-12 9-7 6-9 16-6 15-5 22-1 8v21l3 15 4 11 6 11 8 9 12 5 12 3v1l-24 1-14 4-12 7-12 11-8 11-8 14-7 18-5 22-1 8v31l3 18 7 21 8 15 10 13 9 9 13 9 16 8 20 6 17 3-6 8-11 15-8 13-8 15-7 19-4 18-1 7v23l3 18 5 16 7 16 10 16 13 16 15 15 13 10 14 8 16 7 16 5 22 4 11 1h35l24-3 23-5 22-8 18-10 12-9 10-9 10-10 10-13 9-16 6-14 6-21 4-25h3v14l-5 24-7 19-10 19-10 13-11 12-8 8-16 12-16 9-20 8-19 5-23 4-12 1h-36l-23-3-20-5-16-6-19-10-14-11-12-11-6-6v-2h-2l-7-9-7-10-10-17-6-15-4-13-3-19v-22l3-19 5-17 9-20 10-17 15-20-9-1-21-6-16-8-13-9-12-11-11-15-8-15-7-21-3-18v-33l4-22 5-16 8-18 8-12 11-13 12-9 12-6 11-3-8-7-8-12-6-16-3-16v-20l2-15 5-19 6-15 4-8 8-12 9-11 14-18 7-11 8-16 3-9 1-5v-10l-3-13-8-16-8-11-9-8-15-10-22-13-12-9-9-10-5-10-2-7v-22l2-2 7 7 2 1v2l4 2 12 9 18 10 18 6 16 3h20l16-2 23-6 28-11 34-16 29-13 26-10 24-7 22-4 13-1h10l18 2 17 5 17 9 5 4 5-2 13-8 27-14 19-8 20-5zm4 6-20 4-18 6-19 9-22 12-15 10-10 9-7 8-12 15-7 14-1 3v13l4 8 6 8-19 12-14 10-11 9-10 9-8 7-10 10-7 8-12 15-11 17-12 23-7 19-4 16-2 16v16l3 18 8 24 8 18 9 16 9 11 9 9 14 9 15 7 19 5 16 2h35l33-4 30-6 38-10 30-9 22-9 19-9 13-8 12-9 12-11 10-14 8-17 5-19 1-6v-23l-3-15-6-15-8-14-10-13h13l24-3 23-6 21-8 23-12 17-12 14-12 7-7 10-13 8-14 5-15 2-18-6-18-7-11-12-12-14-9-11-5-16-4-8-1h-19l-20 3-23 6-21 8-3-1-7-11-11-12-11-9-16-9-21-7-12-2z" fill="#11100C"/>
<path transform="translate(674,486)" d="m0 0h5l1 1 31 3 14 10 9 7 5 3 13 10 11 8 15 10 4 2 5 4 13 10 18 13 57 42 18 13 19 14 3 2v2l-18 2 4 1 23 1 2 2-2 25-2 23-2 3-31-2-5-1-1-4-5-1-17-12-17-13-9-6-14-10-5-4-5-3-10-8-10-7-8-6-3-1-4-4-15-10v-2l-4-2-10-6-10-8-5-3v-2l-4-2-9-6-5-2-13 12-9 9-11 15-8 16-6 15-5 18-2 10 12 1 122 18 74 11 3 3-35 15h-9l-117-17-61-9-36-5-12-2 3-3 19-8 11-5 3-1h9l10 2 1-10 5-19 6-15 10-19 9-12 11-12 13-12-5-5-17-12-19-14-1-1 1-13 5-32 1-3h-2z" fill="#D09405"/>
<path transform="translate(153,691)" d="m0 0h32l24 5 12 4 9 4 14 7 11 7 2 2-1 5-2 3h-2l-2 4-9 3h-10l-3-5-2-4-8-6-3-2-13-1-13 2-6 3-7 5-2 3h-2l-2 5-4 8-2 5-4 17-2 13v42l2 18 2 12 5 12 6 10 8 7 12 6 15 2 13-1 14-4 14-6 4-1 1 2-4 8-8 11-4 5-8 6-11 5-14 5-18 3-3 1-12 1h-15l-17-2-7-1v-2l-5-1-14-7-17-13-8-7v-2h-2v-2h-2v-2l-2-1-7-14-5-16-4-22-2-30v-10l2-14 5-16 5-13 10-17 8-10 10-8 9-6 19-9z" fill="#D09405"/>
<path transform="translate(55,368)" d="m0 0 13 1 12 2 12 3 25 5 35 8 38 8 28 6 27 4h17v7l-5 10-5 5-5 2-13-1-22-3h-14l-3 6 1 147 5 6 4 2 9 2 1 4h-2l-1 5-6 8-7 6-14 5-9 3-26 3-23 4-9 2-1-3 3-10 2-15 2-33 1-144-3-7-5-5-8-4-10-3-14-2-31-1h-34l-2-3 4-7 5-6 1-3h2v-2l5-3 8-6z" fill="#D09405"/>
<path transform="translate(104,77)" d="m0 0h14l16 4 23 7 13 5 14 7-1 7-2 3v156l4 4 7 1 1 4-6 14-4 5-8 5-25 10-17 5-12 4-7 3h-3v-7l3-12 2-18 2-24v-92l-3-48-4-8v-2h-2l4 7 1 4 3 47 1 37v18l-1 35-3 36-3 17-4 12-8 4-13 6-12 6 2-4 6-7 4-12 3-19 2-24 1-25v-46l-2-45-2-23-5-8-7-6-12-3 1-5 8-14 7-7h11l-2 6-1 2 11 3 9 6v-2h-2v-2l-15-6 1-6 10-14z" fill="#D09405"/>
<path transform="translate(935,718)" d="m0 0 1 2h4l9 11 19 19 3 4-1 6-7 16-8 16-5 5-7 4-11 8-4 2-1 2-7 4-5 4-7 4-12 9-11 7-15 11-11 7-5 2v2l-18 12-10 7-8 6-5 3-8 6-3 3-10 5-7 6-7 4-11 8-5 2v2l-5 1-5-5-12-13v-2l-3-1-8-10-4-4-5 1 2-6 15-32 3-5 14-10 18-12 41-28 31-21 19-13 69-47z" fill="#D09407"/>
<path transform="translate(1038,660)" d="m0 0h4l37 4 14 11 39 30 18 14 26 20 18 14 16 12 15 12 12 9 13 10 12 9 7 1 2 4-6 11-5 8-5 10h-2l-2 6-5 10h-11l-3-1-18-1-2-1-11-1-5-6-11-8-5-3-5-5-12-9-15-12-16-12-17-13-10-8-11-8-6-4v-2l-4-2-12-9-13-10-12-9-7-6-11-8-8-6-8-7-1-2 6-11 7-12 3-4 8-14z" fill="#D09405"/>
<path transform="translate(1216,547)" d="m0 0 3 1 6 16 8 23v7l-1 1-26 4-22 3-15 2-1 1-26 3-45 7 106-14 20-3h7l-1 3-8 7-10 9-8 7-11 2-212 26-13 1-2-1-7-24-6-21 1-4 3-3 7-4 3-1v-2l8-6 8-5h2l3-3 35-5 5-1 24-3 86-12 20-3 25-3zm-135 69-5 1v1l10-1v-1z" fill="#D09405"/>
<path transform="translate(1022,729)" d="m0 0 3 1v2l4 2 8 7v2h2l10 10 2 1 1 3 3 3 5 17 17 56 12 39 5 17 9 29 11 37 8 26 1 4-1 2-17 8-16 8-7 4-5-1-4-2v-2l-4-2-23-23-17-55-20-66-21-69-9-29-1-7 8-5 16-7 5-3zm-42 25 1 2z" fill="#D09405"/>
<path transform="translate(479,403)" d="m0 0h25l16 5 13 7 11 9 10 12 8 15 4 14 1 7v16l-2 11-5 15-8 13-11 12-11 8-12 6-14 4h-26l-14-4-14-7-10-8-8-8-9-14-5-12-3-16v-16l3-16 6-14 7-10 10-11 13-9 13-6z" fill="#D09405"/>
<path transform="translate(464,644)" d="m0 0 18 1 16 5 11 6 9 7 10 10 9 15 5 16 1 4v25l-3 12-6 14-10 14-5 5h-2v2l-14 9-12 5-11 3h-21l-16-4-16-8-13-11-9-12-7-15-4-16v-21l4-16 8-16 8-10 7-7 14-9 13-5z" fill="#D09405"/>
<path transform="translate(18,403)" d="m0 0h35l35 3 24 4 6 3 4 5 2 7-1 147-2 29-3 18-4 10-6 5 15-6 14-3h3l-2 6-5 4-10 3h-66l2-6 5-12 3-12v-166l-2-4-5-1h-28l-20 3-9 4-3 1 1-11 5-13 8-14z" fill="#050404"/>
<path transform="translate(856,77)" d="m0 0h20l12 3 15 8 12 11v2h2l8 14 4 11 2 9v10l-3 15-7 14-8 10-10 9-14 8-15 4h-12l-16-3-13-6-13-9-10-9-13-10-15-8-17-5-18-3h-20l-18 3-14 5-15 8-9 7-9 9-1 2h-2l-2 5-5 8-1-3 7-16 7-11 8-10 10-10 14-10 16-8 13-4 9-2 9-1h32l16 3 12 5 21 12 15 7 9 2h9l10-3 10-6 3-1v-2h-2v-2l-8 3-6 1h-10l-10-3-8-7-6-12-1-4v-10l3-10 8-11 6-5z" fill="#A5F8A1"/>
<path transform="translate(600,679)" d="m0 0 4 1-2 1 38 6 50 7 46 7 50 7 41 6h9l30-13 4-3h3l1 23v31l-4 3-15 5-17 6h-9l-35-5-32-5-12-1-9-2-60-9-21-3-1 3v-5h-3l-1 4v-5l-13-1-34-5-5-1-1-2-2-47-2-1h2z" fill="#D09405"/>
<path transform="translate(671,922)" d="m0 0h18l15 4 15 9 8 7 10 14 5 13 2 11v16l-3 15-8 15-7 9-8 7-11 7-17 5-14 1-16-3-9-4-11-6-11-11-7-10-5-12-3-14v-13l3-16 8-16 3-3 5-7 9-7 10-6 10-4z" fill="#D09405"/>
<path transform="translate(120,693)" d="m0 0h8l-4 4-14 9-11 9-11 11-9 13-8 16-5 15-3 18v28l3 24 5 19 7 16 7 11 8 9v2l4 2 7 6 11 7 15 7 16 5 18 4 2 2-25 5-8 1h-31l-17-4-18-8-10-7-10-10-11-15-7-14-5-17-4-24-1-10v-17l3-25 4-19 6-16 9-15 12-14 10-9 14-8 12-5 23-5z" fill="#080705"/>
<path transform="translate(1111 1e3)" d="m0 0h20l11 3 14 7 10 9 6 8 4 8 4 15v17l-4 15-6 11-11 12-10 7-14 5h-24l-10-3-9-4v-2l-4-1-8-7-9-12-3-7-3-10v-24l4-14 7-10 4-6 12-9 10-5z" fill="#D09405"/>
<path transform="translate(1324,819)" d="m0 0h22l16 8 8 7 7 9 3 4 3 13v19l-5 15-7 9-7 7-6 4-12 5-7 1h-10l-13-3-9-4-14-13-7-15-2-10v-13l4-14 3-7 4-4 6-7 11-7 7-3z" fill="#D09405"/>
<path transform="translate(80,91)" d="m0 0h11l-2 6-1 2 11 3 8 6 6 9 1 4 3 47 1 37v18l-1 35-3 36-3 17-4 12-8 4-13 6-12 6 2-4 6-7 4-12 3-19 2-24 1-25v-46l-2-45-2-23-5-8-7-6-12-3 1-5 8-14z" fill="#0B0908"/>
<path transform="translate(711,568)" d="m0 0 4 1-3 5-10 9-10 10-11 15-8 16-6 15-5 18-2 10 12 1 122 18 74 11 3 3-35 15h-9l-117-17-61-9-36-5-12-2 3-3 19-8 11-5 3-1h9l10 2 1-10 5-19 6-15 10-19 9-12 11-12z" fill="#676866"/>
<path transform="translate(932,720)" d="m0 0h3l-3 9-13 29-22 15-44 30-24 16-14 10-24 16-20 14-34 23-13 9-3 3-1-2 17-36 3-5 14-10 18-12 41-28 31-21 19-13 47-32z" fill="#686966"/>
<path transform="translate(1223,598)" d="m0 0h7l-1 3-8 7-10 9-8 7-11 2-212 26h-10l5-5 13-11 9-7 90-12 11-2 120-16z" fill="#6B6B67"/>
<path transform="translate(679,487)" d="m0 0 32 3 14 10 9 7 5 3 13 10 11 8 15 10 4 2 5 4 13 10 18 13 57 42 18 13 19 14 3 2v2l-18 2h-10l-18-13-16-12-14-10-12-9-14-10-11-8-34-25-14-10-15-11-16-12-14-10-30-22z" fill="#676866"/>
<path transform="translate(1380,499)" d="m0 0h9l9 2 10 6 9 9 4 8v26l-3 8-8 10-6 4-6 3-10 2h-7l-11-3-7-3-3-3v-2l-4-2-5-7-3-7-1-5v-16l2-7h2l2-6 9-10 9-5z" fill="#D09405"/>
<path transform="translate(980,756)" d="m0 0 7 6 7 7 8 7 5 5 12 38 25 82 27 87 4 13v3h-2v-2l-4-2-23-23-17-55-20-66-21-69-8-26z" fill="#696966"/>
<path transform="translate(1043,661)" d="m0 0h10l26 3 14 11 39 30 18 14 26 20 18 14 16 12 15 12 12 9 13 10 11 9v1l-15-1-21-3-15-12-17-13-69-53-18-14-12-9-18-14-16-12-17-13z" fill="#696966"/>
<path transform="translate(470,475)" d="m0 0h14l11 4 10 9 6 10 3 10v7l-4 13-6 8-8 7-12 5-14 1-10-4-8-6-6-5-5-12-1-1v-17l4-10 6-9 10-7 4-2z" fill="#E2C88C"/>
<path transform="translate(858,73)" d="m0 0h17l12 3 10 4 13 9 9 9 9 14 5 14 1 4v22l-4 13-7 13-12 13-12 9-10 5-12 3h-22l-12-3-14-7-16-12-10-9-15-10-15-6-17-4-8-1h-23l-16 3-16 6-11 6-10 8-8 8-9 14-5 10-7 21h-1v-9l3-19 6-18 8-15 10-13 12-12 14-10 16-8 15-5 10-2 10-1h29l17 3 12 5 25 14 11 5 9 2h10l5-2h-8l-13-4-8-7-6-10-3-10v-9l3-10 7-11 9-8 9-4zm-2 4-10 5-7 6-7 11-2 8v10l4 11 6 8 5 4 10 3h10l12-3 2-1v2h2v2l-18 9-5 1h-9l-12-3-16-8-21-12-16-5-8-1h-32l-14 2-14 4-12 5-16 10-13 12-8 9-9 14-7 16 1 3 6-10 1-3h2l7-8 9-8 14-8 11-5 17-4 8-1h20l18 3 17 5 15 8 10 8 14 12 13 9 12 5 16 3h12l15-4 11-6 13-11 9-11 6-13 3-15v-10l-4-16-8-15-2-3h-2l-2-4-10-9-15-8-12-3z" fill="#031402"/>
<path transform="translate(668,988)" d="m0 0h15l7 3 9 6v2h2l5 11 1 3v14l-7 14-10 7-2 1h-19l-10-3-9-7-5-10-1-3v-13l4-10 7-8 8-5z" fill="#E2C88C"/>
<path transform="translate(1022,729)" d="m0 0 3 1v2l4 2 8 7v2h2l10 10 2 1 1 3 3 3 5 17 17 56 12 39 5 17 9 29 11 37 8 26 1 4-1 2-17 8-16 8-7 4-5-1-2-1-25-82-27-87-15-49-3-7-9-9-8-7-7-7-2 1-1-7 8-5 16-7 5-3zm28 30-40 20-1 3 18 59 17 55 19 62 15 48 6-2 36-18 1-3-21-69-9-30-9-29-21-69-8-27z" fill="#D09405"/>
<path transform="translate(455,724)" d="m0 0h14l12 6 7 8 3 7v17l-5 10-8 7-8 4-11 1-9-2-8-5v-2l-4-2-5-9-2-8 1-11 6-11 8-7z" fill="#E2C88C"/>
<path transform="translate(870,698)" d="m0 0h3l1 23v31l-4 3-15 5-17 6h-9l-35-5-32-5-12-1-9-2-60-9-21-3-1 3v-4h12l161 24 2 1v-29l1-21 10-5 23-10z" fill="#D1960B"/>
<path transform="translate(659,46)" d="m0 0 2 1-10 9-7 8-12 15-7 14-1 3v13l4 8 6 8-27 18-12 9-13 11-13 12-7 7-7 8-12 15-11 17-12 23-7 19-4 16-2 16v16l3 18 8 24 8 18 9 16 9 11 8 8 14 9 15 7 19 5 16 2h35l33-4 30-6 38-10 10-2v3l-2 2-52 13-26 5-24 3-14 1h-22l-20-2-17-4-16-6-15-9-13-12-7-8-10-16-8-17-10-28-3-16v-28l4-21 6-18 8-18 10-17 12-17 11-13 12-13 9-9 8-7 16-13 16-11 11-7h2l-7-11-2-6v-11l4-11 6-10 8-10 9-10 5-6 5-2z" fill="#000500"/>
<path transform="translate(470,475)" d="m0 0h14l11 4 10 9 6 10 3 10v7l-4 13-6 8-8 7-12 5-14 1-10-4-8-6-6-5-5-12-1-1v-17l4-10 6-9 10-7 4-2zm2 10-10 4-8 8-4 11v7l4 11 5 5 7 5 7 2h8l9-4 6-4 5-8 1-3v-14l-5-10-8-7-3-2-11-1z" fill="#DFB554"/>
<path transform="translate(1390,519)" d="m0 0h12l9 4 4 4 3 6v12l-5 12-6 7-10 6-4 1h-9l-3-2v-2l-4-1-6-9-2-6v-12l5-10 8-7z" fill="#E2C88C"/>
<path transform="translate(889,645)" d="m0 0h21l14 1v10l-4 39h-11l-21-2-4-1 4-44z" fill="#D09405"/>
<path transform="translate(1342,866)" d="m0 0h8l8 3 8 8 3 6v13l-3 5-8 7-8 4-6 1-8-2-6-4-6-7-2-6v-9l3-8 5-5 5-4z" fill="#E2C88C"/>
<path transform="translate(937,722)" d="m0 0 4 2 15 16 7 7 7 8-5 12-10 22-3 1-7-8-11-12-7-8-5-6 1-6 9-19z" fill="#D09405"/>
<path transform="translate(55,368)" d="m0 0 13 1 12 2 12 3 25 5 35 8 38 8 28 6 27 4h17v7l-5 10-5 5-5 2-13-1-22-3h-14l-3 6 1 147 5 6 4 2 9 2 1 4h-2l-1 5-6 8-7 6-14 5-9 3-26 3-23 4-9 2-1-3 3-10 2-15 2-33 1-144-3-7-5-5-8-4-10-3-14-2-31-1h-34l-2-3 4-7 5-6 1-3h2v-2l5-3 8-6zm-2 2-11 4-10 7v2l-3 1-9 14v1l59 1 22 3 12 4 9 6 4 8v137l-2 37-3 22-2 9 10-2 32-5 23-4 13-5 9-7 5-7 2-6-7-2-8-4-4-6v-149l2-6h12l28 4h12l5-3 6-10 1-6-28-3-41-8-87-19-39-8z" fill="#EDDDB9"/>
<path transform="translate(668,988)" d="m0 0h15l7 3 9 6v2h2l5 11 1 3v14l-7 14-10 7-2 1h-19l-10-3-9-7-5-10-1-3v-13l4-10 7-8 8-5zm2 9-8 4-7 8-2 5v11l4 8 4 5 8 4h13l7-4 7-8 2-4v-12l-4-8-4-5-9-4z" fill="#DFB554"/>
<path transform="translate(1118,1065)" d="m0 0h10l8 4 6 7 2 5v10l-3 8-8 7-5 2h-10l-8-3-6-7-3-6v-12l4-7 7-6z" fill="#E2C88C"/>
<path transform="translate(455,724)" d="m0 0h14l12 6 7 8 3 7v17l-5 10-8 7-8 4-11 1-9-2-8-5v-2l-4-2-5-9-2-8 1-11 6-11 8-7zm2 8-8 3v2l-3 1-5 8-1 4v7l4 9 4 5 6 3 10 1 9-3 5-4 5-10v-9l-3-7-5-6-10-4z" fill="#DFB554"/>
<path transform="translate(999,740)" d="m0 0 3 1-21 10 6 7 19 19 6-2 36-18v-2l-1-2 4 1 1 3 3 3 5 17 17 56 12 39 5 17 9 29 11 37 8 26 1 4-1 2-17 8-16 8-7 4-5-1-2-1-25-82-27-87-15-49-3-7-9-9-8-7-7-7-2 1-1-7 8-5zm51 19-40 20-1 3 18 59 17 55 19 62 15 48 6-2 36-18 1-3-21-69-9-30-9-29-21-69-8-27z" fill="#EAD6A8"/>
<path transform="translate(104,77)" d="m0 0h14l16 4 23 7 13 5 14 7-1 7-2 3v156l4 4 7 1 1 4-6 14-4 5-8 5-25 10-17 5-12 4-7 3h-3v-7l3-12 2-18 2-24v-92l-3-48-4-8v-2l-3 1v-3-2h-2v-2l-15-6 1-6 10-14zm1 1-8 9-4 8v2l9 4 6 4 6 8 2 5 3 39 1 24v65l-2 34-3 24-3 13 1 3 24-9 24-8 12-5 8-5 5-6 4-8 2-6-10-3-3-4v-155l4-8-1-3-19-8-27-9-23-5z" fill="#E9D5A6"/>
<path transform="translate(1216,547)" d="m0 0 3 1 6 16 8 23v7l-1 1-26 4-22 3-15 2-1 1-26 3-45 7-9 1-1 2h-5-2v1l-83 11-2-1 3-2 87-13 121-18 21-3h5l-14-42v-2l-26 4-160 22-45 6 9 35v5l-2-3-10-31 1-7 7-2 30-4 5-1 24-3 86-12 20-3 25-3z" fill="#EBD8AD"/>
<path transform="translate(153,691)" d="m0 0h32l24 5 12 4 9 4 14 7 11 7 2 2-1 5-2 3h-2l-2 4-2-1 7-9-4-4-18-10-20-8-20-5-17-2h-16l-16 3-16 6-14 7-6 4h-2v2l-8 6-8 9-8 14-7 15-5 15-2 12v20l2 26 3 17 5 16 8 16 9 11 16 12 14 8 13 5 13 2h27l16-3h10v-2l16-5 11-6 10-9 6-8 1 2-7 9-5 5-6 5-11 5-14 5-18 3-3 1-12 1h-15l-17-2-7-1v-2l-5-1-14-7-17-13-8-7v-2h-2v-2h-2v-2l-2-1-7-14-5-16-4-22-2-30v-10l2-14 5-16 5-13 10-17 8-10 10-8 9-6 19-9z" fill="#EAD7AC"/>
<path transform="translate(1390,519)" d="m0 0h12l9 4 4 4 3 6v12l-5 12-6 7-10 6-4 1h-9l-3-2v-2l-4-1-6-9-2-6v-12l5-10 8-7zm1 8-7 3-6 7-2 8 1 7 6 8 3 3 12 2 10-5 3-4v-2h2l2-6-1-9-5-8-8-4z" fill="#DFB554"/>
<path transform="translate(1342,866)" d="m0 0h8l8 3 8 8 3 6v13l-3 5-8 7-8 4-6 1-8-2-6-4-6-7-2-6v-9l3-8 5-5 5-4zm-1 7-6 3-5 6-1 5v7l3 6 6 5 3 1h10l6-4 4-5 1-3v-9l-2-5-7-6-3-1z" fill="#DFB554"/>
<path transform="translate(1118,1065)" d="m0 0h10l8 4 6 7 2 5v10l-3 8-8 7-5 2h-10l-8-3-6-7-3-6v-12l4-7 7-6zm1 6-7 3-4 6-1 3v7l4 8 7 4h9l6-4 4-5 1-7-1-6-7-8-3-1z" fill="#DFB554"/>
<path transform="translate(1038,660)" d="m0 0h4l2 1 4 4 16 12 18 14 13 10 21 16 18 14 16 12 18 14 52 40 7 5-2 2-19-14-18-14-32-24-10-8-42-32-12-9-26-20-16-12-10-8-3 1-9 15-2-1 6-10 4-7z" fill="#EEDFBC"/>
<path transform="translate(671,922)" d="m0 0h18l15 4 15 9 8 7 10 14 5 13 2 11v16l-3 15-8 15-7 9-8 7-11 7-17 5-14 1-16-3-9-4-11-6-11-11-7-10-5-12-3-14v-13l3-16 8-16h2l-2 5-5 11-3 12v21l3 11 8 16 11 12 11 7 12 5 10 2h14l16-4 12-6 9-8h2l2-4 7-10 6-15 2-13-1-16-4-13-6-12-11-12-10-7-11-5-15-3h-9l-12 2-13 5-11 7-11 11 2-5 5-5 7-6 10-6 10-4z" fill="#E8D4A4"/>
<path transform="translate(746,120)" d="m0 0h29l17 3 12 5 25 14 11 5 17 3-1 3h-12l-9-3-19-10-18-10-14-4-8-1h-32l-14 2-14 4-12 5-6 3-1-3 5-4 14-6 14-4z" fill="#041402"/>
<path transform="translate(1024,208)" d="m0 0h8l6 4 3 3 1 3v8l-4 6-6 4h-8l-7-5-3-6v-6l5-8z" fill="#F8F7F3"/>
<path transform="translate(1111 1e3)" d="m0 0h20l11 3 14 7 10 9 6 8 4 8 4 15v17l-4 15-6 11-11 12-10 7-14 5h-24l-10-3-9-4v-2l-4-1-8-7-9-12-3-7-3-10v-24l4-14 7-10 4-6 12-9 10-5zm7 1-14 3-14 7-10 9-7 10-5 12-2 9v16l3 12 6 12 11 12 10 7 13 5 5 1h16l12-3 10-5 10-8 6-7 5-8 5-15v-22l-4-13-5-9-9-10-7-6-12-6-15-3z" fill="#E9D4A5"/>
<path transform="translate(195,715)" d="m0 0h17l10 4 8 9 2 5 16-1-3 2-8 1h-6l-3-5-2-4-8-6-3-2-13-1-13 2-6 3-7 5-2 3h-2l-2 5-4 8-2 5-4 17-2 13v42l2 18 2 12 5 12 6 10 8 7 12 6 15 2 13-1 14-4 14-6 4-1 1 2-4 8-2 1 2-8-18 8-13 3h-21l-12-4-9-6-7-7-7-12-4-13-3-22v-51l5-25 5-13 7-9 10-8 7-3z" fill="#EBD9B0"/>
<path transform="translate(866,701)" d="m0 0 3 1-18 8-13 6-1 48 33-12 3 1-9 4-18 6-8 3h-9l-35-5-32-5-12-1-9-2-60-9-21-3-1 3v-4h12l161 24 2 1v-29l1-21 10-5z" fill="#E8D2A1"/>
<path transform="translate(179,125)" d="m0 0h1l1 141 4 4 7 1 1 4-6 14-4 5-8 5-25 10-17 5-12 4-7 3h-3v-7l3-12 2-18 3-41 1-62h1v65l-2 34-3 24-3 15 24-9 24-8 12-5 8-5 4-5 4-8 2-5-9-3-3-3z" fill="#EEDEBA"/>
<path transform="translate(1324,819)" d="m0 0h22l16 8 8 7 7 9 3 4 3 13v19l-5 15-7 9-7 7v-3l9-10 6-13 2-9v-11l-3-13-6-11-4-5-7-6-12-6-9-2h-13l-13 4-9 5-6 5-7 11-4 9-1 5v18l4 13 6 9 5 6 9 6 10 4 5 1h16l12-4 6-1-2 2-12 5-7 1h-10l-13-3-9-4-14-13-7-15-2-10v-13l4-14 3-7 4-4 6-7 11-7 7-3z" fill="#E9D4A5"/>
<path transform="translate(711,568)" d="m0 0 4 1-3 5-10 9-10 10-11 15-8 16-6 15-5 18-3 10h-3l1-10 5-19 6-15 10-19 9-12 11-12z" fill="#201F19"/>
<path transform="translate(1195,550)" d="m0 0h12v1l-175 24-45 6 9 35v5l-2-3-10-31 1-7 7-2 30-4 5-1 24-3 86-12 20-3 25-3z" fill="#E9D4A5"/>
<path transform="translate(697,135)" d="m0 0m-2 1 3 1-2 4-10 7-10 9-8 9-9 14-7 16 2 7-6 13-5 16h-1v-9l3-19 6-18 8-15 10-13 12-12z" fill="#010E00"/>
<path transform="translate(94,376)" d="m0 0h8l25 5 12 3 79 17 27 4h17v7l-5 10-5 5-5 2-13-1-22-3h-14l-3 6v8h-2v-10l3-6 2-1h10l28 4h12l5-3 6-12 1-3h-12l-27-4-49-10-54-12-24-5z" fill="#E9D5A7"/>
<path transform="translate(534,211)" d="m0 0 1 2-4 7-6 10-6 12-2 7-3 5-4 15-3 14-1 1v36l2 11 3 7 3 11 4 9 5 13 12 20v2h2l7 8 1 3 4 2v2l5 2 8 6 2 1v2l-5-2-11-8-11-11-7-10-8-14-8-18-9-27-2-12v-28l4-21 6-18 8-18 10-17z" fill="#000100"/>
<path transform="translate(811,640)" d="m0 0 5 1 16 12 18 13 14 10 18 13 2-20 3-23 2-4 13 1 22 1 2 2-2 25-2 23-2 3-31-2-5-1-1-4-5-1-17-12-17-13-9-6-14-10-5-4-5-3zm78 5-1 3-4 44 15 2 10 1h11l4-39v-10l-14-1z" fill="#E9D5A6"/>
<path transform="translate(935,718)" d="m0 0 1 2h4l9 11 19 19 3 4-1 6-7 16-8 16-5 5-7 4-7 5v-3l14-10v-2l-29-31-3-2 13-29 4-9-2-1zm2 4-15 30 1 5 10 11 7 8 11 12 1 2 3-1 15-33-6-7-7-8-10-10-7-8z" fill="#E2C788"/>
<path transform="translate(153,691)" d="m0 0h32l24 5 12 4 9 4 14 7 11 7 2 2-1 5-2 3h-2l-2 4-2-1 7-9-4-4-18-10-20-8-20-5-17-2h-16l-16 3-16 6-14 7-6 4h-2v2l-8 6-8 9-8 14-3 6-1-4 9-16 8-10 10-8 9-6 19-9z" fill="#E9D4A4"/>
<path transform="translate(544,201)" d="m0 0v3l-12 18-12 23-7 19-4 16-2 16v16l3 18 8 24 8 18 8 14-1 2-7-10-6-11-3-9-2-3-3-11-3-9-2-4-2-11v-36l2-7 6-23 4-7 2-7 10-19 4-5 2-5h2l2-5z" fill="#000900"/>
<path transform="translate(1023,205)" d="m0 0h11l6 4 4 5 1 2v12l-4 6-5 4-3 1h-10l-7-4-4-5-1-3v-10l4-7 5-4zm1 3-7 5-3 6v6l5 8 5 3h8l6-4 4-6v-8l-3-5-5-4-2-1z" fill="#030402"/>
<path transform="translate(999,740)" d="m0 0 3 1-21 10 6 7 19 19 6-2 36-18v-2l-1-2 4 1 1 3 2 1v5l-1-4-23 11-20 10 4 16h-3l-5-15-10-10-8-7-7-7-2 1-1-7 8-5z" fill="#E2C88C"/>
<path transform="translate(137,625)" d="m0 0h3l-2 6-5 4-10 3h-66l1-2h44l4-2 21-7z" fill="#36342D"/>
<path transform="translate(625,950)" d="m0 0h2l-2 5-5 11-3 12v21l3 11 8 16 11 12 11 7 12 5 10 2h14l16-4 12-6 3 1-10 6-17 5-14 1-16-3-9-4-11-6-11-11-7-10-5-12-3-14v-13l3-16z" fill="#EBD9AF"/>
<path transform="translate(196,579)" d="m0 0 7 6 11 3 1 4h-2l-1 5-6 8-7 6-14 5-9 3-26 3-23 4-9 2-1-3 3-10 2-15 1-15h1v20l-4 20 26-5 33-5 14-4 11-7 6-8 2-6-9-2-7-5-1-3z" fill="#EDDDB9"/>
<path transform="translate(156,816)" d="m0 0 2 4 2 18 2 12 5 12 6 10 8 7 12 6 15 2 13-1 14-4 14-6 4-1 1 2-4 8-2 1 2-8-18 8-13 3h-21l-12-4-9-6-7-7-7-12-4-13-3-22z" fill="#E9D4A4"/>
<path transform="translate(1366,504)" d="m0 0 2 1-10 8-6 10-3 12 1 12 4 10 5 7 2 1v2l5 2 8 4 4 1h13l11-4 8-6 6-8 4-9 1 3-3 8-8 10-6 4-6 3-10 2h-7l-11-3-7-3-3-3v-2l-4-2-5-7-3-7-1-5v-16l2-7h2l2-6 9-10z" fill="#EAD7AB"/>
<path transform="translate(1065,1074)" d="m0 0h2l4 12 5 10 11 12 11 7 11 4 5 1h16l12-3 10-5 10-8 7-9 4-7 2 1-5 9-11 12-10 7-14 5h-24l-10-3-9-4v-2l-4-1-8-7-9-12-3-7z" fill="#E8D3A3"/>
<path transform="translate(630,79)" d="m0 0v3l-5 11-1 3v13l4 8 6 8-27 18-12 9-3 1 1-3 10-7 3-5 20-13h5l-6-7-4-9v-13l6-14z" fill="#000700"/>
<path transform="translate(1146,743)" d="m0 0 12 6 15 12 16 12 18 14 13 10 7 5-2 2-19-14-18-14-32-24-10-8z" fill="#E8D3A4"/>
<path transform="translate(1056,569)" d="m0 0h5l-1 2-71 10h-2l9 35v5l-2-3-10-31 1-7 7-2 30-4 5-1 24-3z" fill="#EAD8AC"/>
<path transform="translate(247,886)" d="m0 0 1 2-7 9-5 5-6 5-11 5-14 5-18 3-3 1-12 1h-15l-17-2-7-1v-2l-3-1 8 1 13 2h27l16-3h10v-2l16-5 11-6 10-9z" fill="#EDDCB6"/>
<path transform="translate(687,427)" d="m0 0h9l-3 2-26 4-23 2h-22l-20-2-8-2v-2l19 2 5 1h31l20-2 3-1 12-1z" fill="#000200"/>
<path transform="translate(1262,806)" d="m0 0h7l2 4-6 11-5 8-5 10h-2l-2 6-5 10h-11l-3-1-18-1-2-1-11-1-5-6-6-4 3-1 9 7v2l24 2 18 1 20-35h2l1-5 2-4h-6z" fill="#ECDAB1"/>
<path transform="translate(1091,701)" d="m0 0 7 2 36 28 20 15-1 2-5-4-6-3-38-29-12-9z" fill="#EEDFBC"/>
<path transform="translate(659,740)" d="m0 0h12l94 14 6 2-3 1-18-2-9-2-60-9-21-3-1 3z" fill="#EBD9AF"/>
<path transform="translate(55,368)" d="m0 0 13 1 12 2 12 3 7 1v1h-9l-25-5h-12l-11 4-8 6h-2v2l-5 5-6 10v1l27 1v1h-28l-2-3 4-7 5-6 1-3h2v-2l5-3 8-6z" fill="#EDDDB9"/>
<path transform="translate(1054,933)" d="m0 0h2l18 57 4 13-1 3-2-1-21-69z" fill="#E7D09D"/>
<path transform="translate(1108,776)" d="m0 0 4 2 13 10 16 12 14 11 30 23 5 4-1 2-9-6-5-5-12-9-15-12-16-12-17-13-7-6z" fill="#E9D6A8"/>
<path transform="translate(935,718)" d="m0 0 1 2h4l9 11 19 19 3 4-1 6-7 16-5 10-2 5-1-4 14-31-6-7-7-8-10-10-7-8-2-1-2 5h-2l1-5 1-2-2-1z" fill="#E8D19E"/>
<path transform="translate(1285,880)" d="m0 0h2l5 13 8 11 8 6 10 5 8 2h16l12-4 6-1-2 2-12 5-7 1h-10l-13-3-9-4-14-13-7-15z" fill="#EBD9AE"/>
<path transform="translate(648,197)" d="m0 0h2l1 2 2-1 1 5-6 13-5 16h-1v-9l3-19z" fill="#000100"/>
<path transform="translate(999,740)" d="m0 0 3 1-21 10 6 7 19 19 2 1v3l-4-2-8-8-8-7-7-7-2 1-1-7 8-5z" fill="#EAD7AC"/>
<path transform="translate(1012,796)" d="m0 0h2l9 29 10 33h-3l-18-58z" fill="#E5CE99"/>
<path transform="translate(964,595)" d="m0 0 2 1-10 8h-2l7 25 6 20v2l13-10 4-2-5 6-8 6 2 2h-6l-2-1-7-24-6-21 1-4 3-3 7-4z" fill="#E6CE98"/>
<path transform="translate(72,854)" d="m0 0h2l6 16 6 11 9 11 16 12 14 8 7 3-4 1-14-7-17-13-8-7v-2h-2v-2h-2v-2l-2-1-7-14-4-13z" fill="#E9D4A3"/>
<path transform="translate(866,701)" d="m0 0 3 1-18 8-13 6-1 48h-1l-1-19h-1l1-30 10-5z" fill="#E0BF73"/>
<path transform="translate(724,890)" d="m0 0h2l9 11 7 7 9 11 6 6 4-1 16-11 10-7 2 1-4 4-7 4-11 8-5 2v2l-5 1-5-5-12-13v-2l-3-1-8-10-6-5z" fill="#E5CC95"/>
<path transform="translate(665,164)" d="m0 0 3 2-9 14-7 16-1 5-1-4h-2l2-9 9-17z" fill="#021201"/>
<path transform="translate(474,505)" d="m0 0 7 1 2 3-1 7-4 2-5-1-3-3v-6z" fill="#FEFEFE"/>
<path transform="translate(1043,726)" d="m0 0 4 2 52 40 9 7h-3l-11-8-6-4v-2l-4-2-12-9-13-10-12-9z" fill="#E9D5A5"/>
<path transform="translate(416,169)" d="m0 0 10 2 24 8 28 5v1l-18-1-15-3-20-7-11-2z" fill="#010400"/>
<path transform="translate(196,579)" d="m0 0 7 6 11 3 1 4h-2l-1 5-6 8-7 6-14 5-7 2h-10v-1l19-4 10-4 9-7 5-9 1-3-9-2-7-5-1-3z" fill="#E8D29F"/>
<path transform="translate(1044,620)" d="m0 0h7l-1 3-53 7-2-1 3-2z" fill="#E6CE98"/>
<path transform="translate(589,153)" d="m0 0 3 1-13 12-8 7-9 9-7 8-9 11v-3l8-11 22-22 7-6 4-4h2z" fill="#000900"/>
<path transform="translate(764,4)" d="m0 0h11l15 1 24 6 6 2 5 5-27-9-12-2h-39v-1z" fill="#000900"/>
<path transform="translate(852,861)" d="m0 0h2v2l-18 12-10 7-8 6-5 3-8 6-3 3h-3l2-4 12-8 19-13 17-12z" fill="#E7D09C"/>
<path transform="translate(98,84)" d="m0 0v3l-5 10 9 3 6 4 7 9 2 5v18h-1l-1-16-4-8v-2l-3 1v-3-2h-2v-2l-15-6 1-6z" fill="#EDDCB3"/>
<path transform="translate(1380,499)" d="m0 0h9l9 2 10 6 9 9 4 8v7l-8-16-9-8-9-4-4-1h-13l-10 2 3-3z" fill="#EBD8AD"/>
<path transform="translate(1377,848)" d="m0 0h2l3 7 1 5v19l-5 15-7 9-7 7v-3l9-10 6-13 2-9v-11l-3-13z" fill="#E7CF99"/>
<path transform="translate(672,1014)" d="m0 0h7l2 2v6l-3 3h-6l-2-3v-6z" fill="#FEFEFE"/>
<path transform="translate(1025,679)" d="m0 0 1 4-11 18 2 4 20 15 6 5h-3l-11-8-8-6-8-7-1-2 6-11z" fill="#E5CD95"/>
<path transform="translate(628,77)" d="m0 0h2l-2 5-6 14v13l5 11 4 3v2l-4 1-1-4-6-10-1-4v-11l4-11z" fill="#000100"/>
<path transform="translate(163,744)" d="m0 0h2l-2 10-2 6-3 18-1 38h-1v-42l5-25z" fill="#F1E5C9"/>
<path transform="translate(903,826)" d="m0 0 2 1-10 8-9 5-5 4-16 11-9 6-2-1 18-13 13-9 15-10z" fill="#EAD7AA"/>
<path transform="translate(888,645)" d="m0 0 1 3-4 41-2 3v-2l-5-1v-3l4 3 2-20 3-23z" fill="#E1C37E"/>
<path transform="translate(1065,1074)" d="m0 0h2l4 12 5 10 11 12 11 7 2 1-1 2-7-3v-2l-4-1-8-7-9-12-3-7z" fill="#EAD6A8"/>
<path transform="translate(753,598)" d="m0 0 5 1 13 10 17 12 15 11 1 2-5-2-16-12-3-1-4-4-15-10v-2l-4-2z" fill="#E7D09B"/>
<path transform="translate(460,748)" d="m0 0 5 1 2 3-1 5-3 2h-5l-2-3 1-6z" fill="#FEFEFE"/>
<path transform="translate(1193,778)" d="m0 0 5 2 18 14 11 8-2 2-19-14-13-10z" fill="#E8D3A3"/>
<path transform="translate(38,375)" d="m0 0 2 1-6 5h-2v2l-5 5-6 10v1l27 1v1h-28l-2-3 4-7 5-6 1-3h2v-2l5-3z" fill="#F2E7CE"/>
<path transform="translate(1078,1026)" d="m0 0 2 1-6 8-5 12-2 9v18h-2v-22l4-14 7-10z" fill="#E7D09C"/>
<path transform="translate(662,923)" d="m0 0h5v2l-15 5-12 7-12 12 2-5 5-5 7-6 10-6z" fill="#EBD8AE"/>
<path transform="translate(984,584)" d="m0 0 2 2 2 3 2 4 6 23v5l-2-3-10-31z" fill="#E1C27B"/>
<path transform="translate(620,1013)" d="m0 0 3 4 6 10 9 10 10 7 6 3-3 1-11-6-11-11-7-10-2-5z" fill="#E5CD95"/>
<path transform="translate(1366,504)" d="m0 0 2 1-10 8-6 10-3 12-1 10h-1v-16l2-7h2l2-6 9-10z" fill="#F1E3C5"/>
<path transform="translate(894,216)" d="m0 0 4 1-14 3-23 2 4 6 2 5-5-5-5-6v-2l31-3z" fill="#000900"/>
<path transform="translate(1393,541)" d="m0 0 7 1v6l-2 2h-6l-1-7z" fill="#FEFEFE"/>
<path transform="translate(651,204)" d="m0 0 1 3-5 12-4 13h-1v-9l2-15h1l1 7 4-9z" fill="#000900"/>
<path transform="translate(1128,728)" d="m0 0 5 2 18 14 3 2-1 2-5-4-6-3-13-10z" fill="#EDDDB7"/>
<path transform="translate(231,705)" d="m0 0 8 3 16 10 2 2-1 5-2 3h-2l-2 4-2-1 7-9-4-4-18-10-2-1z" fill="#EBD9B0"/>
<path transform="translate(877,139)" d="m0 0h2v2h2v2l-9 6-3-1 1-3-2-1 3-3z" fill="#061803"/>
<path transform="translate(787,906)" d="m0 0 2 1-4 4-7 4-11 8-5 2v2l-5 1v-3l4-1 16-11z" fill="#ECDAB1"/>
<path transform="translate(1190,840)" d="m0 0 4 1 8 6v2l24 2v1l-12 1-2-1-11-1-5-6-6-4z" fill="#E8D3A2"/>
<path transform="translate(964,595)" d="m0 0 2 1-10 8h-2l4 15 1 9-2-1-3-13-2-10 4-4 7-4z" fill="#EBD9AF"/>
<path transform="translate(1152,1013)" d="m0 0 5 3 9 8 6 8 4 9-3-1-5-9-9-10-7-6z" fill="#EBD9B0"/>
<path transform="translate(1077,688)" d="m0 0 7 4 11 9-2 1-7-3-11-9z" fill="#EFE0BD"/>
<path transform="translate(1054,673)" d="m0 0 5 2 4 3 5 2 9 7v2l-5-1-10-8-8-6z" fill="#EBD9AF"/>
<path transform="translate(247,886)" d="m0 0 1 2-7 9-5 5-6 5-6 3-4-1 11-6 10-9z" fill="#E8D3A2"/>
<path transform="translate(932,727)" d="m0 0 3 1-12 24-1 4h-2l1-5z" fill="#E2C78A"/>
<path transform="translate(1070,981)" d="m0 0 2 3 6 19-1 3-2-1-6-20z" fill="#E3C88C"/>
<path transform="translate(932,806)" d="m0 0 3 1-7 4-1 2-7 4-5 4-7 4-2 1 2-4 18-12z" fill="#EBD9AE"/>
<path transform="translate(1344,885)" d="m0 0 5 1 1 4-3 4-4-1-2-4z" fill="#FEFEFE"/>
<path transform="translate(1012,796)" d="m0 0h2l6 19v5l-2-1-6-19z" fill="#EAD8AD"/>
<path transform="translate(728,579)" d="m0 0 5 2 11 8 9 7-1 2-6-4-12-9-2-1v-2l-4-2z" fill="#ECD9B0"/>
<path transform="translate(256,419)" d="m0 0h2l-2 4-4 4-5 2-13-1-10-1v-1h24l5-3z" fill="#EDDDB9"/>
<path transform="translate(250,875)" d="m0 0 4 1-3 8-3 2 2-8-13 6h-5l3-2 14-6z" fill="#EFE1C1"/>
<path transform="translate(1031,858)" d="m0 0h2l6 19v5l-2-1-6-19z" fill="#E7D2A0"/>
<path transform="translate(1058,618)" d="m0 0h12l-2 2-11 2h-11v-1z" fill="#F1E5CA"/>
<path transform="translate(653,184)" d="m0 0h3l-3 9-2 8-1-4h-2l2-9z" fill="#040F04"/>
<path transform="translate(1121,1082)" d="m0 0 5 2 1 3-1 3-5 1-3-5z" fill="#FEFEFE"/>
<path transform="translate(1054,933)" d="m0 0h2l6 19v5l-2-1-6-20z" fill="#E7D3A3"/>
<path transform="translate(819,884)" d="m0 0 3 1-4 3-5 3-8 6-3 3h-3l2-4 12-8z" fill="#ECDAB0"/>
<path transform="translate(850,668)" d="m0 0 4 1 10 7 13 10-1 2-12-9-14-10z" fill="#EBD8AD"/>
<path transform="translate(1348,541)" d="m0 0h1l3 12 7 11 2 1v2l3 1-2 1-2-1v-2l-4-2-5-7-3-7z" fill="#E7D09B"/>
<path transform="translate(1247,847)" d="m0 0 1 3-2 5h-11l-3-1-11-1v-1h23z" fill="#ECDCB5"/>
<path transform="translate(63,712)" d="m0 0 2 1-19 19-2-1 13-14z" fill="#504C39"/>
<path transform="translate(1025,679)" d="m0 0 1 4-11 18-2 3-1-2 6-11z" fill="#EDDCB5"/>
<path transform="translate(733,1022)" d="m0 0 2 1-9 12-8 7-3-1 8-7h2l2-4z" fill="#E9D3A1"/>
<path transform="translate(1025,732)" d="m0 0 4 2 8 7v2h2l5 5 3 5h-2l-20-20z" fill="#E8D19D"/>
<path transform="translate(534,388)" d="m0 0 5 5 9 10 5 6-4-1-7-8-5-5v-2h-2z" fill="#000900"/>
<path transform="translate(98,84)" d="m0 0v3l-5 10 9 3v3l-5-3-6-2 1-6z" fill="#EDDDB7"/>
<path transform="translate(608,137)" d="m0 0 2 2-5 5-11 9h-2l1-3 10-7 3-5z" fill="#020902"/>
<path transform="translate(975,44)" d="m0 0 4 1 16 9 4 5-4-2-14-8-7-3z" fill="#000900"/>
<path transform="translate(176,724)" d="m0 0h2v2l-4 4h-2l-2 5-5 9-2-1 5-10z" fill="#E8D19D"/>
<path transform="translate(1146,743)" d="m0 0 12 6 5 5v2l-5-2-7-6z" fill="#E5CD96"/>
<path transform="translate(1022,729)" d="m0 0 3 1-1 2-5 1-14 7-3-1 5-3z" fill="#E9D3A1"/>
<path transform="translate(1085,614)" d="m0 0m-7 1h7l-4 2-1 2-12 1-3-3z" fill="#EAD7AB"/>
<path transform="translate(753,598)" d="m0 0 5 1 13 10 4 3-1 2-11-8-2-1v-2l-4-2z" fill="#EBD9B1"/>
<path transform="translate(1285,880)" d="m0 0h2l5 13 6 9-4-1-8-16z" fill="#EAD7AB"/>
<path transform="translate(811,640)" d="m0 0 5 1 13 10v3l-8-6-5-4-5-3z" fill="#EAD7AA"/>
<path transform="translate(1376,892)" d="m0 0h2l-2 5-9 10-4 3 2-4 8-9z" fill="#EEDEBA"/>
<path transform="translate(935,718)" d="m0 0 1 2h4l5 7-4-2-4-3-2 5h-2l1-5 1-2-2-1z" fill="#E9DAB6"/>
<path transform="translate(982,582)" d="m0 0 2 1-16 12h-2v-2l8-6z" fill="#E9D4A5"/>
<path transform="translate(1050,916)" d="m0 0 2 3 4 14h-3l-4-13z" fill="#E2C687"/>
<path transform="translate(1043,726)" d="m0 0 4 2 13 10v3l-13-10z" fill="#ECDAB2"/>
<path transform="translate(1091,701)" d="m0 0 7 2 6 5v3l-4-2-9-7z" fill="#EAD7AA"/>
<path transform="translate(1044,620)" d="m0 0h7l-1 3-8 1h-9l4-2z" fill="#EBD9AF"/>
<path transform="translate(301,412)" d="m0 0 2 1-15 15-2-1 9-10z" fill="#575448"/>
<path transform="translate(1082,1106)" d="m0 0 4 1 10 7 4 2-1 2-7-3v-2l-4-1-6-5z" fill="#ECDAB3"/>
<path transform="translate(1367,832)" d="m0 0 5 4 8 11-1 3v-2l-3-1-5-8-4-5z" fill="#EEDFBC"/>
<path transform="translate(1008,781)" d="m0 0 2 1 4 14h-3l-4-12z" fill="#E6CF99"/>
<path transform="translate(999,59)" d="m0 0 4 2 8 7 3 5-1 2-9-10z" fill="#000900"/>
<path transform="translate(1420,547)" d="m0 0 1 3-3 8-7 8-2-1 6-7z" fill="#E8D2A0"/>
<path transform="translate(1296,902)" d="m0 0 4 2 8 6 3 2v2l2 1-4-1-11-9z" fill="#EFE1BF"/>
<path transform="translate(992,578)" d="m0 0 3 1-6 2h-2l1 9-2-1-2-6 1-3z" fill="#EFE1C1"/>
<path transform="translate(640,934)" d="m0 0h2v2l-8 7-5 6-1-2 5-7z" fill="#EBDBB4"/>
<path transform="translate(1117,721)" d="m0 0 7 2 5 5v2l-4-2-8-6z" fill="#E9D6A9"/>
<path transform="translate(1366,504)" d="m0 0 2 1-10 8-3 4-2-1 9-10z" fill="#ECDBB4"/>
<path transform="translate(261,405)" d="m0 0h1v7l-3 7-3-1 4-10-3-1z" fill="#EAD7AB"/>
<path transform="translate(1014,137)" d="m0 0 1 3-5 9-6 5 2-4z" fill="#000800"/>
<path transform="translate(173,95)" d="m0 0 6 2 5 3-1 7-3 3 1-5 1-4-8-4z" fill="#EDDDB8"/>
<path transform="translate(719,936)" d="m0 0 4 2 7 8 1 4-12-12z" fill="#E9D5A6"/>
<path transform="translate(1028,844)" d="m0 0 2 4 3 10h-3l-3-9z" fill="#E2C88C"/>
<path transform="translate(196,579)" d="m0 0 7 6 9 2v1h-9l-7-5-1-3z" fill="#EDDCB4"/>
<path transform="translate(659,46)" d="m0 0 2 1-10 9-2-1 4-5z" fill="#000900"/>
<path transform="translate(948,795)" d="m0 0h2v2l-7 4-7 5v-3z" fill="#EEDEBB"/>
<path transform="translate(1162,754)" d="m0 0 5 2 5 4v2l-4-1-5-4z" fill="#EEDFBC"/>
<path transform="translate(1141,738)" d="m0 0 5 2 8 6-1 2-5-4-6-3z" fill="#F1E4C9"/>
<path transform="translate(206,602)" d="m0 0 2 1-9 8-6 2v-2l11-7z" fill="#ECDBB4"/>
<path transform="translate(1408,566)" d="m0 0 3 1-8 6-7 2 4-4z" fill="#EBDAB2"/>
<path transform="translate(1173,1088)" d="m0 0 2 1-5 9-5 5 2-5z" fill="#EDDCB6"/>
<path transform="translate(1012,796)" d="m0 0h2l3 11-2 1-3-8z" fill="#E9D4A5"/>
<path transform="translate(25,387)" d="m0 0 2 1-6 10v2l-3-1 2-5z" fill="#EBD8AD"/>
<path transform="translate(416,169)" d="m0 0 10 2-1 3-11-2z" fill="#000300"/>
<path transform="translate(724,890)" d="m0 0h2l8 10-1 2-4-5-6-5z" fill="#EBD9B1"/>
<path transform="translate(110,907)" d="m0 0" fill="#FEFEFE"/>
</svg>
